<?xml version="1.0" standalone="no"?>
<!DOCTYPE svg PUBLIC "-//W3C//DTD SVG 20010904//EN"
 "http://www.w3.org/TR/2001/REC-SVG-20010904/DTD/svg10.dtd">
<svg version="1.0" xmlns="http://www.w3.org/2000/svg"
 width="2048.000000pt" height="2048.000000pt" viewBox="0 0 2048.000000 2048.000000"
 preserveAspectRatio="xMidYMid meet">

<g transform="translate(0.000000,2048.000000) scale(0.100000,-0.100000)"
fill="#000000" stroke="none">
<path d="M6235 14105 c-44 -19 -210 -66 -370 -106 -305 -75 -396 -104 -517
-165 -61 -30 -287 -152 -296 -159 -2 -2 67 -186 72 -192 0 -1 19 8 41 18 291
142 588 230 945 280 245 34 438 16 793 -72 196 -50 325 -94 490 -169 111 -50
129 -56 134 -42 4 9 21 53 40 96 18 44 32 80 30 81 -19 14 -165 94 -242 133
-144 72 -242 104 -590 193 -174 45 -338 93 -374 109 -35 17 -66 30 -70 29 -3
0 -42 -16 -86 -34z"/>
<path d="M6225 13679 c-333 -34 -662 -119 -950 -245 -84 -37 -105 -50 -100
-63 3 -9 32 -78 63 -154 42 -103 61 -137 72 -134 360 107 585 149 923 172 l97
7 -2 211 c-2 130 -7 211 -13 212 -5 1 -46 -1 -90 -6z"/>
<path d="M6195 13074 c-16 -2 -88 -11 -160 -20 -467 -55 -967 -191 -1450 -396
-207 -87 -521 -245 -677 -339 l-138 -83 0 -96 c0 -52 5 -178 11 -280 10 -164
13 -187 31 -201 29 -23 367 -239 374 -239 3 0 3 12 0 28 -9 45 -35 329 -41
464 l-7 126 239 119 c563 281 1122 457 1703 539 227 31 415 21 750 -42 169
-32 537 -124 654 -164 50 -16 96 -30 104 -30 10 0 311 202 351 236 9 8 -14 19
-171 75 -246 90 -530 169 -799 223 -277 55 -666 96 -774 80z"/>
<path d="M6235 12613 c-16 -2 -97 -13 -180 -24 -522 -72 -1074 -246 -1601
-505 l-210 -103 3 -63 c2 -35 8 -118 13 -186 6 -68 10 -132 10 -143 0 -19 26
-19 2055 -19 1950 0 2055 1 2055 18 0 9 5 60 10 112 5 52 10 137 11 188 l3 94
-74 39 c-279 147 -664 307 -930 388 -460 138 -973 228 -1165 204z"/>
<path d="M6000 11331 c0 -5 -8 -12 -17 -14 -17 -4 -17 -5 0 -6 20 -1 24 -41 4
-41 -7 0 -18 -9 -25 -21 -11 -17 -11 -25 2 -44 20 -30 21 -41 3 -26 -8 6 -17
8 -20 5 -3 -3 -29 0 -57 7 -41 10 -55 11 -71 1 -11 -7 -23 -11 -27 -8 -4 3 -9
-4 -9 -15 -2 -23 -4 -23 43 -3 43 18 115 12 134 -11 7 -8 10 -25 6 -38 -4 -19
-15 -25 -70 -34 -36 -6 -79 -18 -97 -27 -18 -9 -34 -16 -36 -16 -7 0 -2 72 6
89 5 9 6 23 1 30 -6 10 -12 7 -25 -12 -9 -14 -14 -31 -10 -36 4 -7 -1 -9 -12
-5 -13 4 -12 1 5 -12 21 -16 30 -53 15 -67 -3 -4 -12 -2 -20 4 -24 20 -96 2
-195 -49 -14 -7 -9 38 7 68 20 39 82 70 140 70 25 0 45 4 45 10 0 15 -46 23
-77 14 -16 -4 -37 -9 -47 -10 -11 -1 -28 -12 -39 -25 -11 -13 -23 -24 -27 -24
-5 0 -12 -4 -17 -9 -5 -5 -3 -6 5 -2 14 8 17 -10 3 -18 -5 -3 -12 -22 -15 -41
-7 -37 12 -80 36 -80 6 0 13 -6 16 -12 4 -15 -24 -17 -33 -3 -12 19 -26 10
-15 -10 8 -14 20 -19 47 -18 20 1 39 -4 41 -10 2 -7 8 -12 13 -12 6 0 7 5 4
10 -3 6 -1 10 4 10 14 0 14 -23 -1 -38 -8 -8 -17 -6 -37 9 -16 13 -27 16 -29
9 -5 -14 27 -50 45 -50 7 0 22 -9 34 -21 17 -17 25 -19 52 -10 147 47 397 57
549 22 88 -20 96 -24 83 -38 -9 -8 -25 -13 -35 -10 -31 8 -23 -7 11 -22 55
-24 18 -33 -76 -16 -101 17 -302 20 -390 4 -135 -23 -131 -23 -117 -8 21 22
15 49 -11 49 -32 0 -38 -8 -26 -33 17 -36 55 -57 111 -62 97 -10 62 -15 -105
-15 l-167 0 0 -151 0 -151 -22 5 c-13 3 -47 9 -75 13 l-53 7 0 93 0 93 -77 4
-78 3 87 2 c86 2 88 2 94 29 6 21 2 30 -14 41 l-22 14 21 29 c31 45 22 72 -28
83 -26 6 -45 17 -52 30 l-10 21 -6 -22 c-5 -14 -18 -23 -43 -28 -78 -15 -89
-43 -35 -93 26 -24 23 -42 -8 -42 -13 0 -19 -7 -19 -24 0 -13 5 -26 12 -28 8
-3 13 -40 14 -111 l3 -107 -59 -30 c-66 -33 -72 -48 -45 -101 15 -29 88 -89
108 -89 6 0 8 22 4 55 l-6 55 37 9 c20 5 53 11 73 14 l37 5 7 -61 c8 -75 6
-77 -146 -136 -60 -23 -111 -46 -113 -50 -8 -13 15 -84 37 -115 18 -25 22 -27
32 -13 7 9 15 14 18 10 4 -3 7 0 7 8 0 8 -5 20 -12 27 -9 9 -9 15 0 24 10 10
15 10 21 -1 7 -11 10 -11 12 3 3 11 31 28 77 46 l72 28 0 -129 c0 -116 -2
-129 -17 -130 -10 -1 -46 -3 -80 -4 l-63 -4 -2 52 -1 52 -7 -65 c-3 -36 -10
-73 -14 -82 -7 -17 1 -18 98 -18 98 0 125 -7 95 -26 -7 -4 -58 -8 -115 -9
-110 -2 -137 -12 -132 -49 3 -22 1 -21 148 -27 14 0 46 3 72 6 37 6 54 4 73
-9 l26 -17 -3 42 c-3 37 -7 44 -28 49 -20 5 -24 11 -22 31 4 37 -18 51 -75 46
l-48 -3 52 -2 c28 -1 55 -6 58 -12 4 -6 -29 -9 -92 -9 -73 1 -88 4 -58 9 22 4
31 8 20 9 -11 1 -27 6 -35 11 -12 8 -10 10 10 9 14 -1 53 -1 88 -1 l62 2 0
145 c0 80 4 145 9 145 4 0 20 11 35 25 19 18 26 34 26 62 0 46 -6 56 -47 77
-18 9 -33 24 -33 33 0 13 9 15 48 11 26 -3 59 -10 74 -16 l28 -11 -1 -240 c0
-256 0 -255 53 -324 95 -121 336 -190 548 -158 93 14 240 82 303 140 26 24 48
56 55 78 6 21 14 147 18 279 l7 242 36 6 c71 12 91 8 91 -16 0 -15 -11 -29
-29 -39 -49 -28 -47 -101 4 -144 23 -19 24 -26 27 -160 1 -77 -1 -145 -4 -150
-4 -7 22 -8 85 -3 50 5 91 9 91 11 1 1 -1 47 -5 102 l-5 100 -2 -92 c-2 -84
-9 -112 -25 -96 -4 3 -31 6 -61 6 l-54 -1 -6 37 c-7 42 -8 221 -1 221 2 0 45
-19 95 -42 75 -34 89 -44 85 -60 -4 -10 -3 -27 0 -39 7 -20 7 -20 27 -2 12 10
30 38 40 62 26 56 22 59 -117 117 -60 24 -115 50 -122 56 -8 7 -13 35 -13 79
0 67 1 69 23 65 12 -3 40 -8 62 -11 73 -11 71 -7 68 -92 -1 -43 1 -68 3 -56 3
12 27 36 54 53 31 20 52 42 59 62 20 56 15 65 -49 95 l-60 27 0 104 c0 91 -2
103 -16 98 -9 -3 -21 -6 -27 -7 -7 0 -3 -4 8 -9 14 -6 -3 -9 -52 -9 -66 -1
-93 9 -60 22 7 3 5 6 -5 6 -16 1 -18 -10 -18 -93 l0 -93 -52 -7 c-95 -11 -87
-24 -86 142 1 137 -1 147 -18 148 -11 1 -71 3 -134 4 -63 1 -106 4 -95 7 11 2
29 6 41 8 24 5 76 50 67 58 -3 4 2 14 12 23 15 16 15 18 1 26 -9 5 -53 17 -99
28 -45 10 -75 19 -66 19 9 1 19 8 23 16 8 21 28 19 24 -2 -3 -14 8 -20 52 -30
75 -16 96 -16 114 3 13 13 16 13 16 1 0 -8 -10 -19 -22 -25 -13 -6 -18 -11
-12 -11 18 -1 95 59 89 69 -3 5 3 14 14 20 12 6 26 20 32 31 9 19 8 20 -10 14
-15 -5 -21 -2 -21 10 0 9 5 13 10 10 19 -11 31 44 17 73 -8 15 -12 36 -10 47
1 11 0 14 -3 7 -5 -10 -10 -8 -21 7 -21 31 -82 57 -129 55 -68 -2 -74 -7 -74
-67 0 -58 -20 -91 -42 -69 -7 7 -4 17 11 33 15 16 21 34 19 59 -2 40 -17 80
-30 80 -5 0 -6 -4 -3 -10 3 -5 0 -7 -9 -4 -8 3 -14 11 -12 17 1 7 1 8 -2 4 -2
-5 -13 -1 -23 9 -11 10 -19 12 -19 5 0 -13 -62 -12 -71 1 -3 5 -18 4 -33 -2
-27 -10 -27 -10 -21 21 5 24 2 36 -15 54 -12 13 -22 35 -22 49 0 15 -2 26 -4
26 -2 0 -4 -4 -4 -9z m17 -77 c-3 -3 -12 -4 -19 -1 -8 3 -5 6 6 6 11 1 17 -2
13 -5z m23 -24 c0 -5 -19 -10 -42 -10 -32 0 -39 3 -28 10 20 13 70 13 70 0z
m-10 -75 c0 -9 -7 -27 -16 -40 -10 -15 -12 -25 -5 -25 6 0 11 5 11 10 0 6 4
10 9 10 15 0 5 -91 -10 -101 -11 -7 -10 -9 3 -9 11 0 15 -5 12 -15 -7 -17 -64
-21 -64 -4 0 7 10 9 28 4 25 -6 26 -5 8 8 -14 10 -18 22 -14 47 3 18 1 51 -3
74 -4 22 -5 44 -3 48 9 14 44 8 44 -7z m170 0 c34 -18 50 -43 50 -79 0 -30
-19 -34 -71 -12 -19 8 -55 17 -81 21 -42 6 -46 10 -51 38 -2 18 -3 35 0 40 8
13 123 7 153 -8z m-449 -28 c-10 -9 -11 -8 -5 6 3 10 9 15 12 12 3 -3 0 -11
-7 -18z m664 -26 c52 -23 67 -42 75 -96 l7 -44 -24 19 c-31 24 -149 64 -168
56 -12 -4 -15 3 -15 33 0 21 3 41 7 44 12 13 78 6 118 -12z m-438 -68 c-2 -16
-4 -5 -4 22 0 28 2 40 4 28 2 -13 2 -35 0 -50z m-197 -23 c0 -5 -9 -10 -21
-10 -11 0 -17 5 -14 10 3 6 13 10 21 10 8 0 14 -4 14 -10z m7 -37 c-4 -3 -2
-12 4 -19 9 -10 7 -15 -5 -20 -24 -9 -46 3 -46 26 0 15 7 20 27 20 14 0 23 -3
20 -7z m481 -20 c3 -17 -2 -23 -15 -23 -28 0 -47 16 -40 35 10 25 51 15 55
-12z m-294 -10 c4 -9 2 -21 -3 -26 -13 -13 -61 0 -61 17 0 27 54 35 64 9z
m113 1 c10 -27 -28 -43 -57 -24 -13 9 -12 12 4 25 26 19 45 19 53 -1z m-239
-16 c18 -18 14 -28 -11 -28 -30 0 -40 10 -26 27 14 16 22 16 37 1z m360 -11
c5 -23 -17 -31 -44 -17 -18 10 -21 16 -13 26 14 18 53 11 57 -9z m-458 -12 c0
-21 -27 -30 -45 -15 -19 16 -10 30 21 30 15 0 24 -6 24 -15z m558 -8 c2 -11
-3 -17 -17 -17 -23 0 -35 15 -26 31 10 15 39 6 43 -14z m-290 -9 c18 -18 15
-23 -13 -23 -14 0 -25 1 -25 2 0 1 3 8 6 17 7 19 16 20 32 4z m470 5 c-10 -2
-18 -9 -18 -14 0 -5 -7 -9 -15 -9 -8 0 -24 -6 -35 -12 -17 -11 -22 -10 -30 2
-5 8 -6 18 -2 22 7 6 57 14 97 15 16 1 17 0 3 -4z m-582 -22 c5 -5 23 -12 39
-14 17 -3 6 -4 -22 -3 -51 1 -61 5 -46 19 9 9 17 9 29 -2z m231 -8 c3 -7 -3
-9 -16 -6 -12 3 -21 10 -21 15 0 13 32 6 37 -9z m-337 -3 c0 -5 -9 -10 -20
-10 -11 0 -20 5 -20 10 0 6 9 10 20 10 11 0 20 -4 20 -10z m-40 -30 c0 -5 -8
-10 -17 -10 -15 0 -16 2 -3 10 19 12 20 12 20 0z m63 3 c-7 -2 -19 -2 -25 0
-7 3 -2 5 12 5 14 0 19 -2 13 -5z m-128 -13 c-3 -5 -18 -10 -33 -9 l-27 1 25
8 c35 11 42 11 35 0z m-365 -60 c0 -5 -5 -10 -11 -10 -5 0 -7 5 -4 10 3 6 8
10 11 10 2 0 4 -4 4 -10z m1142 -363 l3 -257 -161 0 -161 0 -6 36 c-8 49 -50
101 -103 127 l-44 21 0 163 0 162 103 3 c56 2 161 3 234 3 l132 0 3 -258z
m-1094 221 c-3 -21 -9 -23 -68 -26 -81 -4 -130 5 -130 23 0 16 29 21 128 24
71 1 73 0 70 -21z m372 -48 c0 -5 -2 -10 -4 -10 -3 0 -8 5 -11 10 -3 6 -1 10
4 10 6 0 11 -4 11 -10z m-405 -25 c6 -2 -23 -4 -62 -4 -40 -1 -73 3 -73 7 0 8
112 5 135 -3z m490 -15 c-3 -5 -10 -10 -16 -10 -5 0 -9 5 -9 10 0 6 7 10 16
10 8 0 12 -4 9 -10z m-485 -76 l0 -74 -47 0 c-27 0 -58 -3 -70 -6 -22 -6 -23
-4 -23 75 l0 82 70 -2 70 -2 0 -73z m1430 -5 l0 -82 -37 7 c-21 3 -55 6 -75 6
l-38 0 0 75 0 75 75 0 75 0 0 -81z m-1090 31 c0 -5 -9 -10 -21 -10 -11 0 -17
5 -14 10 3 6 13 10 21 10 8 0 14 -4 14 -10z m190 6 c0 -2 -9 -6 -20 -9 -11 -3
-18 -1 -14 4 5 9 34 13 34 5z m-70 -16 c-8 -5 -23 -10 -32 -10 -14 0 -17 -7
-13 -32 4 -26 3 -29 -4 -13 -8 17 -10 18 -10 3 -1 -10 -6 -18 -11 -18 -11 0
-5 49 7 61 7 6 34 13 68 17 6 1 3 -3 -5 -8z m-97 -17 c-7 -2 -21 -2 -30 0 -10
3 -4 5 12 5 17 0 24 -2 18 -5z m97 -13 c0 -5 -8 -10 -17 -10 -15 0 -16 2 -3
10 19 12 20 12 20 0z m-115 -10 c-3 -5 0 -10 7 -10 18 0 -12 -20 -31 -20 -10
0 -11 3 -2 14 10 11 8 15 -6 19 -11 3 -8 5 10 6 17 1 26 -3 22 -9z m172 -5 c0
-8 -6 -15 -13 -15 -8 0 -11 6 -8 15 4 8 9 15 13 15 4 0 8 -7 8 -15z m-37 -15
c0 -5 -4 -10 -10 -10 -5 0 -10 5 -10 10 0 6 5 10 10 10 6 0 10 -4 10 -10z
m-80 -29 c0 -5 -7 -11 -15 -15 -9 -3 -15 0 -15 9 0 8 7 15 15 15 8 0 15 -4 15
-9z m30 0 c0 -5 3 -16 6 -25 3 -9 1 -16 -6 -16 -6 0 -9 4 -5 9 3 5 1 12 -5 16
-13 8 -13 25 0 25 6 0 10 -4 10 -9z m887 -63 c-3 -7 -5 -2 -5 12 0 14 2 19 5
13 2 -7 2 -19 0 -25z m-1317 7 c0 -8 -4 -15 -9 -15 -5 0 -11 7 -15 15 -3 9 0
15 9 15 8 0 15 -7 15 -15z m1381 8 c-11 -5 -11 -7 0 -14 11 -7 10 -9 -3 -9
-10 0 -18 7 -18 15 0 8 8 15 18 14 12 0 13 -2 3 -6z m49 -19 c0 -8 -4 -12 -10
-9 -5 3 -10 13 -10 21 0 8 5 12 10 9 6 -3 10 -13 10 -21z m-1500 -5 c0 -6 -4
-7 -10 -4 -5 3 -10 11 -10 16 0 6 5 7 10 4 6 -3 10 -11 10 -16z m420 7 c0 -3
-4 -8 -10 -11 -5 -3 -10 -1 -10 4 0 6 5 11 10 11 6 0 10 -2 10 -4z m115 -6
c16 -6 14 -8 -12 -7 -18 0 -33 4 -33 9 0 10 18 9 45 -2z m1030 -20 c-3 -5 -13
-10 -21 -10 -8 0 -14 5 -14 10 0 6 9 10 21 10 11 0 17 -4 14 -10z m-1132 -8
c3 7 6 3 6 -9 1 -13 -3 -23 -9 -23 -5 0 -15 10 -21 23 -11 19 -10 21 3 9 13
-10 17 -10 21 0z m107 -13 c0 16 27 13 34 -4 4 -11 -2 -15 -23 -15 -18 0 -31
6 -35 16 -5 14 -4 15 9 4 10 -8 15 -9 15 -1z m-140 -16 c0 -5 -5 -15 -10 -23
-8 -13 -10 -13 -10 2 0 9 -6 19 -12 21 -7 3 -3 6 10 6 12 1 22 -2 22 -6z m27
-29 c-3 -3 -12 -4 -19 -1 -8 3 -5 6 6 6 11 1 17 -2 13 -5z m268 -33 c3 -10 1
-29 -4 -42 -5 -13 -10 -18 -10 -11 -1 7 -5 10 -11 7 -5 -3 -10 1 -10 9 0 9 -4
16 -10 16 -5 0 -7 -7 -3 -16 4 -12 2 -15 -8 -12 -17 6 -19 44 -1 40 7 -1 15 5
18 13 8 21 31 19 39 -4z m88 -3 c14 -22 2 -48 -23 -48 -15 0 -19 5 -16 23 3
12 5 28 5 35 1 17 21 11 34 -10z m-291 -320 c-2 -200 -6 -275 -15 -281 -28
-20 71 7 111 30 24 13 46 22 49 19 3 -3 12 7 20 22 11 20 14 62 13 159 -1 128
0 131 20 126 18 -5 20 -13 20 -97 0 -68 -4 -97 -16 -114 -9 -13 -13 -26 -10
-29 3 -3 11 6 17 21 l12 26 34 -48 c40 -58 91 -89 175 -106 l63 -13 -65 -20
c-87 -27 -194 -40 -188 -23 2 7 25 18 51 25 26 7 50 15 54 19 13 13 -22 27
-59 24 -40 -4 -43 -1 -29 21 22 35 -29 74 -59 46 -18 -16 -18 -20 -5 -46 20
-38 19 -39 -13 -27 -30 12 -82 4 -82 -12 0 -5 25 -17 55 -26 30 -10 55 -22 55
-27 0 -14 -104 -1 -183 23 l-67 21 0 264 c0 145 -3 270 -6 279 -5 12 0 16 22
16 l29 0 -3 -272z m-212 57 c0 -113 -2 -205 -5 -205 -2 0 -11 13 -20 30 -12
23 -15 67 -15 205 0 168 1 175 20 175 19 0 20 -7 20 -205z m105 -50 c0 -140
-2 -255 -4 -255 -3 0 -13 7 -23 17 -16 15 -18 36 -18 255 l0 238 23 0 22 0 0
-255z m350 195 c0 -44 -30 -55 -45 -16 -13 34 -3 58 24 54 17 -2 21 -10 21
-38z m225 9 c0 -5 -7 -9 -15 -9 -15 0 -20 12 -9 23 8 8 24 -1 24 -14z m-40
-19 l25 -19 -37 1 c-35 1 -48 14 -31 31 10 10 16 8 43 -13z m107 14 c-3 -3
-12 -4 -19 -1 -8 3 -5 6 6 6 11 1 17 -2 13 -5z m97 -3 c-3 5 0 9 5 9 6 0 11
-6 11 -14 0 -11 -21 -15 -85 -17 -62 -3 -88 -8 -95 -19 -8 -12 -10 -11 -10 8
0 20 5 22 49 22 28 0 52 4 55 9 3 5 21 5 41 1 20 -5 33 -4 29 1z m-524 -266
c0 -151 -2 -174 -16 -179 -9 -4 -18 -5 -19 -4 -1 2 -5 102 -9 223 l-7 220 26
-44 c24 -42 25 -49 25 -216z m525 225 c-3 -5 -10 -10 -16 -10 -5 0 -9 5 -9 10
0 6 7 10 16 10 8 0 12 -4 9 -10z m-245 -70 c0 -22 16 -27 22 -8 6 17 28 0 28
-22 0 -14 -5 -18 -17 -13 -27 9 -53 34 -47 44 3 5 -1 9 -9 9 -14 0 -30 34 -20
44 9 9 43 -34 43 -54z m138 31 c3 -8 -4 -10 -22 -5 -20 5 -26 2 -26 -10 0 -9
-6 -16 -14 -16 -9 0 -12 8 -9 24 4 19 10 23 36 21 17 -1 33 -8 35 -14z m27
-26 c-28 -24 -54 -44 -60 -45 -5 0 12 20 40 45 27 25 54 45 59 45 6 0 -12 -20
-39 -45z m76 -20 c12 8 7 -38 -6 -47 -6 -5 -4 -12 5 -18 10 -6 11 -10 3 -10
-7 0 -13 -7 -13 -15 0 -8 -3 -15 -7 -15 -5 0 -7 35 -6 77 3 95 5 109 10 60 2
-20 8 -35 14 -32z m-309 -4 c2 -16 0 -39 -4 -52 -5 -12 -5 -25 -1 -28 11 -8
12 -81 2 -81 -5 0 -9 6 -9 14 0 8 -6 17 -12 19 -9 4 -9 8 -3 14 16 13 14 85
-2 79 -17 -7 -18 35 -1 52 18 18 25 15 30 -17z m263 -49 c-2 -2 -30 0 -62 4
-54 8 -55 9 -23 14 31 5 95 -8 85 -18z m-165 -7 c0 -10 -11 -15 -35 -15 -26 0
-33 3 -29 15 4 9 19 15 35 15 19 0 29 -5 29 -15z m143 -12 c-7 -2 -21 -2 -30
0 -10 3 -4 5 12 5 17 0 24 -2 18 -5z m-123 -28 c0 -8 -17 -25 -38 -39 -47 -29
-71 -56 -51 -56 11 0 11 -2 -1 -10 -25 -16 -40 -11 -39 13 0 12 3 16 6 9 5
-13 45 25 80 76 17 25 43 30 43 7z m100 -24 c25 -21 42 -42 38 -46 -7 -8 -98
64 -98 77 0 16 16 7 60 -31z m7 33 c-3 -3 -12 -4 -19 -1 -8 3 -5 6 6 6 11 1
17 -2 13 -5z m83 -39 c-5 -14 -6 -25 -2 -25 4 0 -1 -5 -12 -11 -13 -8 -15 -14
-7 -19 9 -5 4 -16 -14 -38 -29 -35 -50 -41 -59 -17 -3 8 -1 15 4 15 6 0 10 -4
10 -10 0 -5 7 -7 15 -4 8 4 15 10 15 16 0 5 -4 6 -10 3 -16 -10 -12 5 10 32
11 14 20 36 20 49 0 20 11 31 32 33 4 1 3 -10 -2 -24z m-160 6 c0 -6 -4 -13
-10 -16 -5 -3 -10 1 -10 9 0 9 5 16 10 16 6 0 10 -4 10 -9z m0 -64 c0 -23 -5
-34 -15 -34 -8 0 -15 6 -15 14 0 7 5 13 11 13 8 0 9 4 0 13 -6 8 -8 17 -4 20
14 15 23 5 23 -26z m473 16 c-13 -2 -35 -2 -50 0 -16 2 -5 4 22 4 28 0 40 -2
28 -4z m-550 -55 c25 -15 37 -28 37 -43 0 -7 -3 -7 -8 0 -4 6 -16 17 -26 25
-18 14 -19 13 -13 -2 8 -22 -1 -22 -28 -2 -17 13 -18 16 -5 24 19 12 16 12 43
-2z m97 -32 c0 -13 -20 -26 -41 -26 -14 0 -11 28 4 33 23 10 37 7 37 -7z
m-844 -31 c7 -7 -16 -9 -70 -8 -57 1 -76 -1 -66 -9 11 -7 10 -8 -5 -2 -11 4
-45 9 -75 10 -73 2 -79 4 -55 14 28 11 258 7 271 -5z m574 5 c0 -5 -5 -10 -11
-10 -5 0 -7 5 -4 10 3 6 8 10 11 10 2 0 4 -4 4 -10z"/>
<path d="M5930 10930 c0 -5 4 -10 9 -10 6 0 13 5 16 10 3 6 -1 10 -9 10 -9 0
-16 -4 -16 -10z"/>
<path d="M6260 10606 c0 -17 -43 -46 -70 -46 -11 0 -20 -4 -20 -9 0 -13 34
-23 53 -16 8 4 18 2 22 -4 4 -7 -7 -11 -30 -11 -20 0 -34 -4 -31 -9 3 -5 15
-7 26 -4 11 3 20 0 20 -6 0 -20 -25 -23 -68 -8 -45 16 -50 13 -27 -17 33 -43
15 -63 -49 -56 -14 1 -17 -3 -12 -15 3 -9 6 -23 6 -31 0 -8 4 -14 10 -14 5 0
7 7 4 15 -4 10 0 15 14 15 12 0 24 5 27 10 8 13 72 13 80 0 4 -6 1 -18 -7 -27
-10 -13 -10 -17 0 -20 14 -5 17 -53 2 -53 -5 0 -7 -7 -3 -16 4 -12 0 -15 -22
-12 -16 2 -30 10 -32 18 -4 13 -3 13 6 0 12 -17 24 -8 19 15 -3 14 -6 14 -21
3 -16 -12 -17 -18 -7 -40 10 -21 19 -26 47 -26 20 0 37 6 40 14 3 8 16 14 30
14 21 0 23 2 13 15 -6 8 -9 23 -5 34 3 10 1 22 -5 26 -5 3 -10 -2 -10 -11 0
-14 -3 -15 -11 -7 -15 15 -4 43 17 43 9 0 18 -9 21 -20 3 -11 8 -18 12 -16 4
3 8 -4 8 -15 1 -11 -2 -17 -8 -14 -12 8 -11 1 3 -30 10 -22 9 -27 -7 -39 -16
-12 -17 -16 -6 -30 7 -9 22 -16 33 -16 16 0 19 5 14 25 -4 14 -2 25 4 25 5 0
10 5 10 10 0 6 -5 9 -12 8 -7 -2 -13 11 -14 32 -3 30 1 38 29 55 23 15 33 29
35 53 2 17 -1 32 -5 32 -18 0 0 86 25 115 23 27 23 30 6 34 -21 4 -57 -36 -50
-56 3 -8 1 -11 -4 -8 -6 4 -10 -6 -9 -22 0 -25 1 -26 9 -8 7 17 9 14 9 -13 1
-20 -3 -31 -9 -27 -13 8 -13 -1 2 -24 6 -11 8 -26 3 -37 -5 -11 -7 -22 -7 -26
1 -5 -2 -8 -8 -8 -6 0 -10 5 -10 11 0 5 -4 8 -9 4 -5 -3 -12 -1 -16 5 -4 6
-11 8 -16 5 -5 -3 -6 0 -3 8 3 8 1 18 -5 22 -15 9 -14 46 1 43 7 -2 15 15 20
42 13 68 11 81 -13 106 -25 27 -39 31 -39 10z m25 -6 c3 -5 1 -10 -4 -10 -6 0
-11 5 -11 10 0 6 2 10 4 10 3 0 8 -4 11 -10z m21 -48 c-9 -9 -37 8 -31 18 5 8
11 7 21 -1 8 -6 12 -14 10 -17z m-9 -44 c-3 -8 -6 -5 -6 6 -1 11 2 17 5 13 3
-3 4 -12 1 -19z m-55 -70 c-3 -14 -1 -19 6 -14 7 4 12 1 12 -8 0 -22 -12 -20
-33 5 -20 23 -16 52 7 43 8 -3 12 -13 8 -26z m2 -134 c3 -8 2 -12 -4 -9 -6 3
-10 10 -10 16 0 14 7 11 14 -7z m76 -96 c0 -4 -4 -8 -9 -8 -6 0 -12 4 -15 8
-3 5 1 9 9 9 8 0 15 -4 15 -9z"/>
<path d="M6072 10548 c-20 -20 -14 -43 18 -66 33 -25 48 -29 31 -8 -15 18 -32
76 -22 76 4 0 13 -6 20 -12 10 -11 11 -10 6 5 -8 20 -35 23 -53 5z"/>
<path d="M6135 10380 c-3 -5 -1 -10 4 -10 6 0 11 5 11 10 0 6 -2 10 -4 10 -3
0 -8 -4 -11 -10z"/>
<path d="M6065 9930 c3 -5 8 -10 11 -10 2 0 4 5 4 10 0 6 -5 10 -11 10 -5 0
-7 -4 -4 -10z"/>
<path d="M14385 11250 l-45 -90 95 0 c85 0 95 2 105 20 6 12 38 52 71 90 l60
70 -120 0 -121 0 -45 -90z"/>
<path d="M6025 11310 c-3 -5 -1 -10 4 -10 6 0 11 5 11 10 0 6 -2 10 -4 10 -3
0 -8 -4 -11 -10z"/>
<path d="M5720 11075 c0 -5 5 -17 10 -25 5 -8 10 -10 10 -5 0 6 -5 17 -10 25
-5 8 -10 11 -10 5z"/>
<path d="M9270 10965 l0 -95 405 0 c392 0 406 -1 425 -20 23 -23 26 -68 8 -93
-12 -15 -52 -17 -425 -19 l-413 -3 -2 -230 -2 -230 107 -3 107 -3 0 131 0 130
323 0 c373 0 406 5 469 71 91 96 90 302 -2 390 -71 68 -82 69 -567 69 l-433 0
0 -95z"/>
<path d="M10658 11046 c-91 -25 -169 -108 -188 -203 -7 -34 -11 -117 -9 -207
4 -142 6 -154 33 -209 32 -66 80 -106 159 -134 46 -16 88 -18 352 -18 262 0
306 2 351 18 67 23 128 77 162 141 27 50 27 53 27 246 l0 195 -28 47 c-33 56
-92 100 -167 122 -44 13 -106 16 -349 15 -205 0 -310 -4 -343 -13z m642 -214
c33 -34 46 -113 35 -224 -6 -60 -12 -77 -35 -100 l-28 -28 -266 0 -265 0 -28
24 c-28 24 -28 26 -31 153 -3 139 5 168 48 190 18 9 96 13 283 13 l259 0 28
-28z"/>
<path d="M11702 10668 l3 -393 478 -3 477 -2 0 100 0 100 -370 0 -370 0 0 295
0 295 -110 0 -110 0 2 -392z"/>
<path d="M12790 10665 l0 -395 111 0 111 0 -3 395 -4 395 -107 0 -108 0 0
-395z"/>
<path d="M13337 11043 c-27 -9 -71 -36 -98 -61 -41 -37 -52 -55 -70 -114 -19
-61 -21 -87 -17 -221 3 -125 8 -160 25 -197 40 -91 127 -148 253 -170 41 -7
190 -10 400 -8 l335 3 3 96 3 96 -233 6 c-128 4 -288 7 -356 7 -88 0 -131 4
-151 15 -42 21 -61 78 -61 186 0 95 16 150 48 166 9 4 181 10 382 13 l365 5 3
45 c2 25 1 69 -3 98 l-6 52 -387 -1 c-328 0 -394 -3 -435 -16z"/>
<path d="M14330 10665 l0 -395 104 0 c58 0 107 4 110 9 3 4 3 182 -1 395 l-6
386 -104 0 -103 0 0 -395z"/>
<path d="M15031 10942 c-35 -64 -133 -240 -218 -390 -84 -150 -153 -275 -153
-278 0 -2 55 -3 123 -2 l122 3 59 105 c32 58 100 184 152 280 51 97 100 184
107 194 13 17 20 8 80 -109 37 -70 67 -129 67 -131 0 -2 -38 -4 -85 -4 l-85 0
-40 -80 c-22 -44 -40 -82 -40 -85 0 -3 80 -5 178 -5 l177 0 43 -85 44 -85 125
0 c115 0 125 1 118 18 -3 9 -59 112 -124 227 -65 116 -160 285 -210 378 l-93
167 -141 0 -142 0 -64 -118z"/>
<path d="M5964 10812 c-6 -4 -13 -14 -17 -24 -7 -21 17 -27 76 -21 33 4 44 9
40 19 -4 11 5 14 37 14 35 0 40 -2 31 -14 -15 -18 5 -34 52 -40 20 -2 41 -7
47 -11 5 -3 10 -1 10 4 0 6 -7 11 -16 11 -12 0 -15 6 -10 23 5 22 1 25 -45 35
-56 13 -188 16 -205 4z"/>
<path d="M5848 10801 c-47 -10 -75 -31 -56 -42 33 -21 114 1 91 25 -4 4 -1 11
7 16 17 11 11 11 -42 1z"/>
<path d="M6701 10794 c-1 -7 -18 -15 -38 -19 -47 -8 -83 -30 -83 -50 0 -8 11
-25 25 -37 30 -26 31 -34 5 -41 -24 -6 -26 -30 -4 -52 21 -21 195 -18 202 3 3
11 0 12 -16 3 -26 -14 -147 -14 -173 -1 -10 6 -19 17 -19 25 0 12 18 15 96 15
61 0 93 4 89 10 -3 6 3 22 14 36 31 39 27 63 -14 80 -19 7 -43 14 -54 14 -11
0 -22 6 -24 13 -4 8 -6 8 -6 1z m-16 -34 c3 -5 1 -10 -4 -10 -6 0 -11 5 -11
10 0 6 2 10 4 10 3 0 8 -4 11 -10z"/>
<path d="M6258 10783 c6 -2 18 -2 25 0 6 3 1 5 -13 5 -14 0 -19 -2 -12 -5z"/>
<path d="M3955 10728 c2 -7 24 -83 49 -168 64 -218 113 -359 190 -549 154
-376 307 -668 519 -986 120 -181 104 -181 152 -3 23 84 52 185 65 225 l23 71
-30 49 c-171 272 -392 740 -498 1053 l-22 64 -129 74 c-71 40 -170 98 -220
128 -96 57 -106 61 -99 42z"/>
<path d="M8310 10045 c-91 -41 -194 -87 -231 -102 l-65 -27 -38 -82 c-99 -216
-311 -569 -474 -792 -329 -448 -582 -691 -1065 -1024 -89 -61 -193 -134 -232
-163 -38 -28 -96 -71 -129 -94 l-58 -43 48 -31 c27 -17 97 -59 157 -93 l107
-63 108 66 c396 243 613 412 912 712 303 303 538 616 777 1030 155 268 392
782 360 780 -7 0 -86 -34 -177 -74z"/>
<path d="M15105 9985 c-12 -22 -52 -94 -87 -160 -60 -110 -245 -450 -255 -467
-2 -5 43 -8 100 -8 l104 0 48 88 c26 48 88 163 137 255 79 146 92 166 102 150
24 -35 106 -193 106 -203 0 -6 -31 -10 -73 -10 l-74 0 -27 -62 c-14 -35 -26
-66 -26 -70 0 -5 66 -8 148 -8 l147 0 35 -68 35 -67 108 -3 c59 -1 107 0 107
4 0 4 -29 57 -64 118 -35 61 -110 194 -166 296 -57 102 -114 202 -127 222
l-23 38 -116 -3 -116 -2 -23 -40z"/>
<path d="M9260 9687 c0 -184 2 -336 4 -338 2 -2 47 -3 100 -1 l96 3 2 238 3
237 231 -240 230 -241 130 0 129 0 3 338 2 337 -95 0 -95 0 0 -230 c0 -126 -4
-230 -8 -230 -5 0 -109 104 -231 230 l-223 230 -139 0 -139 0 0 -333z"/>
<path d="M10632 9968 c-17 -29 -74 -134 -127 -233 -53 -99 -121 -223 -151
-276 -30 -52 -54 -101 -54 -107 0 -9 29 -12 98 -12 l97 1 97 177 c53 97 115
215 138 261 23 45 44 80 48 76 16 -16 119 -211 115 -217 -2 -5 -37 -8 -76 -8
l-73 0 -27 -62 c-15 -35 -27 -65 -27 -68 0 -3 66 -5 147 -5 l148 0 38 -72 38
-73 110 0 111 0 -20 33 c-37 61 -269 472 -313 554 l-44 83 -122 0 -122 0 -29
-52z"/>
<path d="M11501 10001 c-74 -26 -101 -49 -136 -116 -29 -58 -30 -61 -29 -201
1 -135 3 -147 29 -199 18 -37 40 -65 65 -81 76 -50 108 -54 457 -54 l323 0 0
85 0 84 -315 3 -315 3 -27 28 c-27 26 -28 31 -28 132 0 101 1 106 28 132 l27
28 315 3 315 3 0 85 0 84 -327 0 c-293 -1 -334 -3 -382 -19z"/>
<path d="M12345 9685 l0 -335 93 0 92 0 0 335 0 335 -93 0 -93 0 1 -335z"/>
<path d="M12822 10001 c-61 -21 -95 -50 -125 -106 -19 -35 -22 -60 -25 -189
-5 -179 5 -222 62 -282 65 -67 104 -74 392 -74 138 0 265 5 294 11 66 14 127
62 159 124 23 44 26 64 29 176 5 162 -11 225 -72 285 -67 67 -105 74 -405 74
-221 -1 -263 -3 -309 -19z m547 -166 c37 -19 51 -60 51 -152 0 -88 -19 -139
-55 -153 -40 -15 -434 -13 -465 3 -33 16 -49 66 -49 153 -1 87 13 130 48 149
38 21 430 21 470 0z"/>
<path d="M13730 9685 l0 -335 100 0 100 0 0 238 1 237 232 -239 232 -238 130
0 130 1 3 336 2 335 -95 0 -95 0 -2 -235 -3 -235 -225 234 -225 234 -142 1
-143 1 0 -335z"/>
<path d="M15830 9882 c0 -77 3 -227 7 -335 l6 -197 409 0 409 0 -3 83 -3 82
-195 -4 c-107 -2 -250 0 -317 4 l-123 7 0 249 0 249 -95 0 -95 0 0 -138z"/>
<path d="M6773 9753 c15 -2 25 -8 22 -13 -3 -4 -15 -6 -28 -4 -13 3 -10 0 8
-7 17 -7 33 -17 37 -23 5 -7 8 -5 8 6 0 35 -12 48 -44 47 -30 -2 -30 -2 -3 -6z"/>
<path d="M6628 9733 c12 -2 32 -2 45 0 12 2 2 4 -23 4 -25 0 -35 -2 -22 -4z"/>
<path d="M6600 9710 c0 -5 7 -10 16 -10 8 0 12 5 9 10 -3 6 -10 10 -16 10 -5
0 -9 -4 -9 -10z"/>
<path d="M6703 9703 c9 -2 25 -2 35 0 9 3 1 5 -18 5 -19 0 -27 -2 -17 -5z"/>
<path d="M6602 9689 c-56 -11 -72 -38 -24 -40 l27 -1 -25 -7 c-20 -5 -26 -14
-28 -44 -3 -37 -3 -38 25 -30 15 4 39 6 53 5 14 -1 73 -3 133 -4 91 -3 107 -1
105 12 -2 8 -13 16 -26 18 -12 2 -22 7 -22 12 0 4 -23 1 -52 -7 -40 -12 -62
-13 -97 -5 -25 5 -61 8 -78 5 -46 -7 -42 14 4 23 21 4 50 2 70 -5 26 -10 41
-10 69 -1 35 12 83 10 117 -5 14 -6 17 -2 17 29 0 29 -4 37 -24 42 -33 8 -209
10 -244 3z m93 -45 c19 -15 19 -15 -10 -8 -37 8 -57 24 -29 24 10 0 28 -8 39
-16z m142 8 c6 -4 -18 -7 -52 -7 -35 0 -67 4 -71 8 -10 9 108 9 123 -1z"/>
<path d="M5120 9582 c0 -20 3 -21 28 -15 15 4 38 6 52 5 109 -8 240 -6 240 5
0 21 -75 35 -121 23 -23 -7 -59 -8 -83 -4 -22 4 -58 7 -79 8 -32 1 -37 -2 -37
-22z"/>
<path d="M5114 9264 c11 -29 139 -209 220 -309 199 -247 391 -441 611 -617 81
-65 350 -253 377 -263 29 -11 400 266 600 447 104 95 254 260 375 411 72 91
243 331 243 341 0 3 -547 6 -1216 6 -1099 0 -1216 -2 -1210 -16z"/>
<path d="M5206 8928 c-2 -7 -14 -62 -25 -123 -12 -60 -32 -154 -45 -208 l-24
-98 160 -164 c88 -90 195 -196 238 -235 l78 -70 91 155 91 154 -183 183 c-101
101 -212 219 -247 263 -98 123 -130 157 -134 143z"/>
<path d="M4293 582 l-363 -2 0 -290 0 -290 8275 0 8275 0 0 290 0 290 -6812 1
c-3747 1 -7308 2 -7913 3 -605 0 -1263 0 -1462 -2z"/>
<path d="M0 290 l0 -290 1025 0 1025 0 0 290 0 290 -1025 0 -1025 0 0 -290z"/>
</g>
</svg>
